<?xml version="1.0" ?><svg id="Layer_2" style="enable-background:new 0 0 1000 1000;" version="1.1" viewBox="0 0 1000 1000" xml:space="preserve" xmlns="http://www.w3.org/2000/svg" xmlns:xlink="http://www.w3.org/1999/xlink"><circle cx="434.809" cy="548.987" r="24.628" style="fill:#FFFFFF;"/><ellipse cx="336.572" cy="523.261" rx="24.628" ry="24.628" style="fill:#FFFFFF;" transform="matrix(0.7071 -0.7071 0.7071 0.7071 -271.4216 391.2517)"/><ellipse cx="527.06" cy="592.397" rx="24.628" ry="24.628" style="fill:#FFFFFF;" transform="matrix(0.9732 -0.2298 0.2298 0.9732 -122.0055 136.9406)"/><path d="M222.249,705.774h589.807c5.361,0,10.028-3.663,11.302-8.87l5.781-23.63H204.979l5.99,23.714  C212.274,702.154,216.921,705.774,222.249,705.774z" style="fill:#FFFFFF;"/><path d="M846.718,601.435c0.62-2.56-1.64-4.89-4.211-4.319c-14.94,3.269-58.37,10.89-113.32,3.5  c-5.23-0.69-10.57-1.53-16-2.521c-6.22-1.14-12.56-2.47-19-4.04c-5.27-1.27-10.61-2.71-16-4.3c-30.72-9.1-63.13-23.57-95-45.981  c-126.96-89.27-318.13-129.35-427.96-79.239c-1.55,0.699-2.36,2.439-1.94,4.09l47.4,187.649h632.61L846.718,601.435z   M238.338,557.485c-22.96,0-41.63-18.67-41.63-41.63c0-22.949,18.67-41.62,41.63-41.62c22.95,0,41.62,18.671,41.62,41.62  C279.958,538.815,261.288,557.485,238.338,557.485z M336.568,564.886c-22.95,0-41.62-18.67-41.62-41.63  c0-22.95,18.67-41.62,41.62-41.62c22.96,0,41.63,18.67,41.63,41.62C378.198,546.216,359.528,564.886,336.568,564.886z   M434.808,590.616c-22.95,0-41.63-18.671-41.63-41.631c0-22.949,18.68-41.63,41.63-41.63c22.96,0,41.63,18.681,41.63,41.63  C476.438,571.945,457.768,590.616,434.808,590.616z M527.058,634.025c-22.95,0-41.63-18.67-41.63-41.63  c0-22.95,18.68-41.63,41.63-41.63c22.96,0,41.63,18.68,41.63,41.63C568.688,615.356,550.018,634.025,527.058,634.025z" style="fill:#FFFFFF;"/><path d="M238.335,491.231c-13.58,0-24.628,11.048-24.628,24.628c0,13.58,11.048,24.628,24.628,24.628  c13.579,0,24.627-11.048,24.627-24.628C262.961,502.279,251.914,491.231,238.335,491.231z" style="fill:#FFFFFF;"/><path d="M323.918,387.976l-7.13,39.99c95.23,9.31,197.51,46.59,276.18,101.9  c12.5,8.79,25.09,16.279,37.62,22.649l28.36-159.109c1.69-9.48-5.6-18.181-15.229-18.181h-304.57  C331.648,375.226,325.228,380.596,323.918,387.976z M569.038,403.976c0-3.729,3.02-6.75,6.75-6.75h42.08  c3.73,0,6.75,3.021,6.75,6.75v8.5c0,3.73-3.02,6.75-6.75,6.75h-42.08c-3.73,0-6.75-3.02-6.75-6.75V403.976z M569.038,448.626  c0-3.73,3.02-6.75,6.75-6.75h42.08c3.73,0,6.75,3.02,6.75,6.75v8.5c0,3.72-3.02,6.75-6.75,6.75h-42.08c-3.73,0-6.75-3.03-6.75-6.75  V448.626z M497.788,403.976c0-3.729,3.02-6.75,6.75-6.75h42.08c3.73,0,6.75,3.021,6.75,6.75v8.5c0,3.73-3.02,6.75-6.75,6.75h-42.08  c-3.73,0-6.75-3.02-6.75-6.75V403.976z M497.788,448.626c0-3.73,3.02-6.75,6.75-6.75h42.08c3.73,0,6.75,3.02,6.75,6.75v8.5  c0,3.72-3.02,6.75-6.75,6.75h-42.08c-3.73,0-6.75-3.03-6.75-6.75V448.626z M424.578,403.976c0-3.729,3.02-6.75,6.75-6.75h42.08  c3.72,0,6.75,3.021,6.75,6.75v8.5c0,3.73-3.03,6.75-6.75,6.75h-42.08c-3.73,0-6.75-3.02-6.75-6.75V403.976z M351.368,403.976  c0-3.729,3.02-6.75,6.75-6.75h42.07c3.73,0,6.75,3.021,6.75,6.75v8.5c0,3.73-3.02,6.75-6.75,6.75h-42.07  c-3.73,0-6.75-3.02-6.75-6.75V403.976z" style="fill:#FFFFFF;"/><path d="M377.518,303.926l-9.68,54.3h255.65l8.94-50.16c1.29-7.22-4.26-13.84-11.59-13.84h-231.74  C383.398,294.226,378.518,298.315,377.518,303.926z M545.648,321.976c0-3.729,3.02-6.75,6.75-6.75h42.08  c3.73,0,6.75,3.021,6.75,6.75v8.5c0,3.73-3.02,6.75-6.75,6.75h-42.08c-3.73,0-6.75-3.02-6.75-6.75V321.976z M472.438,321.976  c0-3.729,3.02-6.75,6.75-6.75h42.08c3.72,0,6.75,3.021,6.75,6.75v8.5c0,3.73-3.03,6.75-6.75,6.75h-42.08  c-3.73,0-6.75-3.02-6.75-6.75V321.976z M399.228,321.976c0-3.729,3.02-6.75,6.75-6.75h42.08c3.72,0,6.75,3.021,6.75,6.75v8.5  c0,3.73-3.03,6.75-6.75,6.75h-42.08c-3.73,0-6.75-3.02-6.75-6.75V321.976z" style="fill:#FFFFFF;"/><path d="M694.188,576.476c6.45,1.66,12.79,3.07,19,4.271c5.45,1.05,10.79,1.939,16,2.68  c17.18,2.44,33,3.31,46.81,3.31c13.96,0,26.35-0.88,36.52-2.02v-25.83c0-6.07-4.92-11-11-11h-72.33v-131.91  c0-2.62-2.13-4.75-4.75-4.75h-6.5c-2.62,0-4.75,2.13-4.75,4.75v131.91h-19v-243.91c0-2.62-2.13-4.75-4.75-4.75h-6.5  c-2.62,0-4.75,2.13-4.75,4.75v243.91h-14c-6.07,0-11,4.93-11,11v4c8.43,3.46,16.78,6.45,25,9.03  C683.588,573.616,688.918,575.126,694.188,576.476z" style="fill:#FFFFFF;"/></svg>